<?xml version="1.0" encoding="UTF-8" standalone="no"?><!-- Generator: Gravit.io --><svg xmlns="http://www.w3.org/2000/svg" xmlns:xlink="http://www.w3.org/1999/xlink" style="isolation:isolate" viewBox="463.598 86.176 473 490" width="100%" height="100%"><defs><clipPath id="_clipPath_SNwHtxcgsgAajdOAXOXzagwKC2IGXLpo"><rect x="463.598" y="86.176" width="473" height="490"/></clipPath></defs><g clip-path="url(#_clipPath_SNwHtxcgsgAajdOAXOXzagwKC2IGXLpo)"><g><circle vector-effect="fixed" cx="700.0980307901241" cy="339.67566391868513" r="236.5" fill="rgb(25,98,90)"/><clipPath id="_clipPath_V9b8U973ODeXUChuqfnyqpjbiMTygcMK"><circle vector-effect="fixed" cx="700.0980307901241" cy="339.67566391868513" r="236.5" fill="rgb(25,98,90)"/></clipPath><g clip-path="url(#_clipPath_V9b8U973ODeXUChuqfnyqpjbiMTygcMK)"><path d=" M 603.294 179 L 603.294 286.836 L 603.294 179 L 603.294 179 L 603.294 179 L 603.294 179 L 603.294 179 L 603.294 179 L 603.294 179 L 603.294 179 L 603.294 179 L 603.294 179 L 603.294 179 L 603.294 179 L 603.294 179 L 603.294 179 Z  M 603.294 286.836 L 666.466 349.466 L 603.294 286.836 L 603.294 286.836 L 603.294 286.836 L 603.294 286.836 L 603.294 286.836 L 603.294 286.836 L 603.294 286.836 L 603.294 286.836 L 603.294 286.836 L 603.294 286.836 L 603.294 286.836 L 603.294 286.836 L 603.294 286.836 L 603.294 286.836 Z  M 666.466 349.466 L 666.466 428.622 L 666.466 349.466 L 666.466 349.466 L 666.466 349.466 L 666.466 349.466 L 666.466 349.466 L 666.466 349.466 L 666.466 349.466 L 666.466 349.466 L 666.466 349.466 L 666.466 349.466 L 666.466 349.466 L 666.466 349.466 L 666.466 349.466 Z  M 666.466 428.622 L 687.115 449.272 L 666.466 428.622 L 666.466 428.622 L 666.466 428.622 L 666.466 428.622 L 666.466 428.622 L 666.466 428.622 L 666.466 428.622 L 666.466 428.622 L 666.466 428.622 L 666.466 428.622 L 666.466 428.622 L 666.466 428.622 Z  M 687.115 449.272 L 666.466 469.921 L 687.115 449.272 L 687.115 449.272 L 687.115 449.272 L 687.115 449.272 L 687.115 449.272 L 687.115 449.272 L 687.115 449.272 L 687.115 449.272 L 687.115 449.272 L 687.115 449.272 L 687.115 449.272 Z  M 666.466 469.921 L 704.323 507.778 L 666.466 469.921 L 666.466 469.921 L 666.466 469.921 L 666.466 469.921 L 666.466 469.921 L 666.466 469.921 L 666.466 469.921 L 666.466 469.921 L 666.466 469.921 L 666.466 469.921 Z  M 704.323 507.778 L 704.323 546.783 L 704.323 507.778 L 704.323 507.778 L 704.323 507.778 L 704.323 507.778 L 704.323 507.778 L 704.323 507.778 L 704.323 507.778 L 704.323 507.778 L 704.323 507.778 Z  M 654.875 282.81 L 704.323 332.258 L 704.323 332.258 L 654.875 282.81 L 654.875 282.81 L 654.875 282.81 L 654.875 282.81 L 654.875 282.81 L 654.875 282.81 L 654.875 282.81 L 654.875 282.81 Z  M 704.323 324.228 L 704.323 332.258 L 704.323 418.297 L 704.323 324.228 L 704.323 324.228 L 704.323 324.228 L 704.323 324.228 L 704.323 324.228 L 704.323 324.228 L 704.323 324.228 Z  M 704.323 324.228 L 738.54 290.011 L 704.323 324.228 L 704.323 324.228 L 704.323 324.228 L 704.323 324.228 L 704.323 324.228 L 704.323 324.228 Z  M 738.54 290.011 L 737.392 212.425 L 738.54 290.011 L 738.54 290.011 L 738.54 290.011 L 738.54 290.011 L 738.54 290.011 Z  M 654.875 235.775 L 654.875 282.81 L 654.875 235.775 L 654.875 235.775 L 654.875 235.775 L 654.875 235.775 Z  M 740.886 349.466 L 783.205 305.149 L 740.886 349.466 L 740.886 349.466 L 740.886 349.466 Z  M 783.706 301.284 L 783.706 192.456 L 783.706 301.284 L 783.706 301.284 Z  M 740.886 349.466 L 740.886 604.142 L 740.886 349.466 Z " fill-rule="evenodd" fill="none" vector-effect="fixed" stroke-width="30" stroke="rgb(255,255,255)" stroke-linejoin="round" stroke-linecap="round" stroke-miterlimit="3"/></g></g></g></svg>